<svg id="Layer_1" data-name="Layer 1" xmlns="http://www.w3.org/2000/svg" viewBox="0 0 426.69 103.02"><defs><style>.cls-1{fill:#4a6931;}.cls-2{fill:#429ab5;}.cls-3{fill:#d58833;}.cls-4{fill:#771e18;}</style></defs><title>CCHS Logo</title><path class="cls-1" d="M61,61.05l9.53-.67V59.8c-.66,0-7.46-.48-10.27.82v-.28s.07-1.85,10.27-.81V58.34a28.53,28.53,0,0,0-10.64.87L48.29,44.71s10.26-1.51,13.81,0l8.47,10.76L70.62,20S61.16,39.23,35.69,39.23a30.74,30.74,0,0,0-.5,5.25,36.62,36.62,0,0,1,11.87,0l12.17,15s-10.94-1.64-18.6,2.46L35.28,51.53c.06,1.19.15,2.48.27,3.86l4.77,9ZM40.32,63.26a36.63,36.63,0,0,1,18.91-2.65v.31s-10.67-1-18.91,2.85Z" transform="translate(-35.19 -19.98)"/><path class="cls-1" d="M70.55,67.2V60.77l-9.21,1c-.44,1.07-1.86.45-2.09.34L39.91,65.26l-4.17-7.91c.29,2.9.71,6.17,1.31,9.85Z" transform="translate(-35.19 -19.98)"/><path class="cls-2" d="M100.1,70.54v0H73.69l0,11.82v-.4h3.83a12.29,12.29,0,0,0-.7,2.84,6.66,6.66,0,0,1-3.13-1.85L73.83,123a37,37,0,0,0,14-9.44l-.07-23.32-2.1-4.54s5.15-6.24.83-13l1.16-2.13h3.86l1.21,2.31s-4,4.47,1.09,13.15l-2.1,4.32,0,18.57a62.73,62.73,0,0,0,4.77-7.5c-.06-4.9-.14-12.48,0-15,.26-3.4-.51-4.52-.51-4.52s.07-.84,1-.11S98,86.09,98,87c0,.49-.17,6.57-.29,12.19.37-.73.72-1.47,1.06-2.2.05-5.62.1-11,.15-12a5.05,5.05,0,0,0-1.2-3.55s1.68-.87,2.14,2.69c.17,1.22.24,5.14.27,9.76l.44-1.08c-.06-6.09.11-9.29-.47-10.47,0,0-.35-1.23.89-.58.62.33.87,3.37,1,7.18.5-1.42,1-2.8,1.35-4.13l-.66.24a12.29,12.29,0,0,0-.7-2.84h2.11a93.41,93.41,0,0,0,2.5-11.69h-2.45l0,0ZM78.54,118.6c-3.43-3.09-2.56-9.06-1.65-15s.35-21,1.78-21.78c1.24-.65.89.58.89.58-.74,1.53-.24,6.46-.6,16.69S78.54,118.6,78.54,118.6Zm1.06-1.43s.16-1,0-1.22a6.56,6.56,0,0,0,1.13-1.76S80.93,116.63,79.6,117.17Zm0-2.73c0-.65-.27-26.66.2-30.21s2.14-2.69,2.14-2.69a5.05,5.05,0,0,0-1.2,3.55c.1,2.21.24,24.37.29,26.31A3.88,3.88,0,0,1,79.6,114.44Zm2.06-3.1a3.91,3.91,0,0,0,0-1.25,2.93,2.93,0,0,0,1-.85S82.56,111,81.66,111.34Zm1.42-5.91c0,2.6-1.16,3.52-1.16,3.52.38-.76-.28-21-.26-21.85s0-4.5.86-5.17,1,.11,1,.11-.77,1.12-.51,4.51S83.08,102.83,83.08,105.43Zm4-15.05v4c-2-.7-2.84-3.28-3-4.11a16.8,16.8,0,0,1,0-3C85.93,90.17,87.06,90.38,87.06,90.38Zm0-8.71V82c-.11,1.11-1.82,3.74-1.82,3.74l-1.72.08s.17-1.28.19-2.23a2.41,2.41,0,0,1,1-1.92Zm8.34,8.68c-.16.83-.92,3.29-2.91,4v-4s1-.09,2.91-3A17.83,17.83,0,0,1,95.4,90.35Zm-1.33-4.57s-.65-1.51-1.58-3.58v-.49h2.16a2.44,2.44,0,0,1,.95,1.93c0,.94.18,2.23.18,2.23Z" transform="translate(-35.19 -19.98)"/><path class="cls-3" d="M63.33,118.39S67.51,109,69.72,90.8a14.08,14.08,0,0,1,.84,4l.06-24.24H37.73a101.58,101.58,0,0,0,7.68,26.11c.71-2.36,2.41-5.09,3.65-7.93a28.09,28.09,0,0,0-.64,13.83c.65,1.15,1.34,2.29,2.08,3.42-2.1-5-2.34-11.15,2.35-18,5.36-7.89,5.94-13.53,5.57-16.73l.63-.4A45.38,45.38,0,0,1,61,104.68c-2.21,6.83-1.71,10.46-.76,12.36a35.5,35.5,0,0,0,10.29,6l0-14c0,.21,0,.33,0,.33C69.55,113.35,67.45,116.87,63.33,118.39Zm-1.24-.09c-.92-1.2-2.08-5.19,1.59-18.45C67.49,86.06,65.1,80.9,65.1,80.9s7.66,7-1.77,30.94c-1.6,4.06-1.57,5.75-1.24,6.46a1.2,1.2,0,0,0,.67.51A.74.74,0,0,1,62.09,118.3Z" transform="translate(-35.19 -19.98)"/><path class="cls-4" d="M96.14,45.85C90.57,39.25,87.43,41,87.43,41c3.21-2.07,11.41-.63,16.62,6.07,1.06,1.38,4.43,4.6,5.2,5.34.44-9.21-.67-13.16-.67-13.16C83.12,39.23,73.66,20,73.66,20l.1,47.22h26.9c.15-2.12-.11-4.82-1.82-6.67a5.88,5.88,0,0,1,3,.6,18.21,18.21,0,0,1,2.55,6.07h1.41c-.25-1.73-.86-4.26-2.36-5.6,0,0,2.4,1,3.6.77a9.72,9.72,0,0,1-.12,4.83h.68c.65-4,1.07-7.5,1.34-10.56C105.38,55,101.64,52.38,96.14,45.85ZM76.29,54.33c0-2.67,4.21-3.92,4.21-3.92s1.44,3.35,2,3.35c0,0-4,4.3,5,9.84C87.43,63.6,76.29,63.2,76.29,54.33ZM99.38,66.47S97,64.12,94.17,64.38,80.83,59.53,83,54.59c0,0,2.61,5.24,14.15,6C97.11,60.61,101.05,63.2,99.38,66.47Zm6.6-5.34a17.83,17.83,0,0,0-8.64-2c-4.77.2-12.4-1.49-15.36-8.72s-4.22-9.76-7.42-9.49A10.15,10.15,0,0,1,85.9,42.05s.2,14.28,16.35,15.81C102.25,57.86,105.45,59.8,106,61.13Zm-.87-5.07C88.77,58.73,87.17,42.45,87.17,42.45c1.2-.45,1.13-1,4.93,1.53S105.11,56.06,105.11,56.06Z" transform="translate(-35.19 -19.98)"/><path d="M147.7,58.94V61.5a9.08,9.08,0,0,1-.73,3.62,10,10,0,0,1-2,3,9.6,9.6,0,0,1-3,2.11,8.75,8.75,0,0,1-3.68.79,13.22,13.22,0,0,1-3.42-.47A8.15,8.15,0,0,1,131.75,69a9,9,0,0,1-2.29-3,10.56,10.56,0,0,1-.9-4.67V38.59a10.11,10.11,0,0,1,.69-3.77,8.85,8.85,0,0,1,2-3,9.09,9.09,0,0,1,3-2,10.29,10.29,0,0,1,3.92-.73A9,9,0,0,1,145,31.8,9.62,9.62,0,0,1,147,35a10.54,10.54,0,0,1,.73,4v2.32h-5.92v-2a4.81,4.81,0,0,0-1-3A3.21,3.21,0,0,0,138.13,35c-1.47,0-2.45.45-2.93,1.36a7.23,7.23,0,0,0-.73,3.45V60.92a5.4,5.4,0,0,0,.79,3,3.09,3.09,0,0,0,2.81,1.22,4.51,4.51,0,0,0,1.25-.2,3.75,3.75,0,0,0,1.24-.67,3.44,3.44,0,0,0,.87-1.28,5,5,0,0,0,.35-2v-2Z" transform="translate(-35.19 -19.98)"/><path d="M151.64,51.17a22.29,22.29,0,0,1,.23-3.3,8.22,8.22,0,0,1,.87-2.67,8,8,0,0,1,3-3.08,10.2,10.2,0,0,1,9.45,0,8,8,0,0,1,3,3.08,7.77,7.77,0,0,1,.87,2.67,21,21,0,0,1,.23,3.3v9.69a21,21,0,0,1-.23,3.3,7.77,7.77,0,0,1-.87,2.67,8,8,0,0,1-3,3.08,10.2,10.2,0,0,1-9.45,0,8,8,0,0,1-3-3.08,8.22,8.22,0,0,1-.87-2.67,22.29,22.29,0,0,1-.23-3.3Zm5.92,10.62a3.59,3.59,0,0,0,.78,2.52,3.08,3.08,0,0,0,4.23,0,3.54,3.54,0,0,0,.79-2.52V50.24a3.54,3.54,0,0,0-.79-2.52,3.08,3.08,0,0,0-4.23,0,3.59,3.59,0,0,0-.78,2.52Z" transform="translate(-35.19 -19.98)"/><path d="M191.31,41.31l-7.65,29.41h-5.22l-7.66-29.41h6.27L181,60.1h.12l3.94-18.79Z" transform="translate(-35.19 -19.98)"/><path d="M210.45,58.25H198.74v4a2.86,2.86,0,0,0,.78,2.15,2.94,2.94,0,0,0,2.12.75,2.33,2.33,0,0,0,2.23-1,5.24,5.24,0,0,0,.67-2h5.91a8.51,8.51,0,0,1-2.37,6.27,8.4,8.4,0,0,1-2.79,1.91,9.24,9.24,0,0,1-3.65.7,9.11,9.11,0,0,1-4.73-1.16,8,8,0,0,1-3-3.08,8.22,8.22,0,0,1-.87-2.67,22.29,22.29,0,0,1-.23-3.3V51.17a22.29,22.29,0,0,1,.23-3.3,8.22,8.22,0,0,1,.87-2.67,8,8,0,0,1,3-3.08A9.11,9.11,0,0,1,201.64,41a9.47,9.47,0,0,1,3.68.7,8.19,8.19,0,0,1,2.81,1.91,9.5,9.5,0,0,1,2.32,6.56Zm-11.71-4.64h5.8V50.24a3.54,3.54,0,0,0-.79-2.52,3.08,3.08,0,0,0-4.23,0,3.59,3.59,0,0,0-.78,2.52Z" transform="translate(-35.19 -19.98)"/><path d="M214.8,70.72V41.31h5.92v2.84h.11a8.57,8.57,0,0,1,2.24-2.29,5.74,5.74,0,0,1,3.33-.9,6.85,6.85,0,0,1,2.21.38,5.12,5.12,0,0,1,2,1.25A6.28,6.28,0,0,1,232,44.82a9.34,9.34,0,0,1,.52,3.34V70.72h-5.91V50.36a4,4,0,0,0-.76-2.55,2.6,2.6,0,0,0-2.14-.93,2.49,2.49,0,0,0-2.32,1,5.8,5.8,0,0,0-.64,3V70.72Z" transform="translate(-35.19 -19.98)"/><path d="M248.56,70.72v-3h-.12a10.78,10.78,0,0,1-2.35,2.5,5.54,5.54,0,0,1-3.33.87,7.52,7.52,0,0,1-2.12-.32A5.82,5.82,0,0,1,237,67.21a10.86,10.86,0,0,1-.61-4,21,21,0,0,1,.4-4.38,7,7,0,0,1,1.51-3.16,6.26,6.26,0,0,1,2.84-1.83,14.44,14.44,0,0,1,4.59-.61h.63a3.1,3.1,0,0,1,.64.06,3.58,3.58,0,0,0,.7.06c.27,0,.56,0,.87,0V50.36a4.43,4.43,0,0,0-.64-2.49,2.55,2.55,0,0,0-2.32-1,3.37,3.37,0,0,0-2.12.75,3.62,3.62,0,0,0-1.24,2.21h-5.75a9.49,9.49,0,0,1,2.67-6.38A8.4,8.4,0,0,1,242,41.63,9.61,9.61,0,0,1,245.6,41a10.41,10.41,0,0,1,3.48.58,8,8,0,0,1,2.84,1.74,8.57,8.57,0,0,1,1.86,2.9,11,11,0,0,1,.69,4.06V70.72Zm0-12.65a10.36,10.36,0,0,0-1.63-.17,5.81,5.81,0,0,0-3.27.9,3.64,3.64,0,0,0-1.37,3.28,4.24,4.24,0,0,0,.82,2.72,2.69,2.69,0,0,0,2.26,1,2.92,2.92,0,0,0,2.35-1,4.18,4.18,0,0,0,.84-2.78Z" transform="translate(-35.19 -19.98)"/><path d="M258.82,70.72V41.31h5.92v2.84h.12a8.39,8.39,0,0,1,2.23-2.29,5.74,5.74,0,0,1,3.33-.9,6.85,6.85,0,0,1,2.21.38,5.12,5.12,0,0,1,2,1.25A6.28,6.28,0,0,1,276,44.82a9.34,9.34,0,0,1,.52,3.34V70.72H270.6V50.36a3.9,3.9,0,0,0-.76-2.55,2.59,2.59,0,0,0-2.14-.93,2.5,2.5,0,0,0-2.32,1,5.8,5.8,0,0,0-.64,3V70.72Z" transform="translate(-35.19 -19.98)"/><path d="M281.39,41.31V32.38h5.91v8.93H291V46H287.3v16.3a5.21,5.21,0,0,0,.2,1.62,1.61,1.61,0,0,0,.67.87,2.47,2.47,0,0,0,1.13.35c.45,0,1,.06,1.66.06v5.57h-2.44a7.92,7.92,0,0,1-3.39-.64A6.25,6.25,0,0,1,283,68.46a6.45,6.45,0,0,1-1.19-2.24,8.3,8.3,0,0,1-.37-2.4V46h-3V41.31Z" transform="translate(-35.19 -19.98)"/><path d="M323.15,58.94V61.5a9.25,9.25,0,0,1-.73,3.62,10,10,0,0,1-2,3,9.6,9.6,0,0,1-3,2.11,8.78,8.78,0,0,1-3.68.79,13.22,13.22,0,0,1-3.42-.47A8.08,8.08,0,0,1,307.2,69a9,9,0,0,1-2.3-3,10.56,10.56,0,0,1-.9-4.67V38.59a10.11,10.11,0,0,1,.7-3.77,9,9,0,0,1,2-3,9.13,9.13,0,0,1,3.05-2,10.27,10.27,0,0,1,3.91-.73,9,9,0,0,1,6.79,2.73,9.62,9.62,0,0,1,2,3.16,10.74,10.74,0,0,1,.73,4v2.32h-5.92v-2a4.76,4.76,0,0,0-1-3A3.19,3.19,0,0,0,313.58,35c-1.47,0-2.45.45-2.93,1.36a7.23,7.23,0,0,0-.73,3.45V60.92a5.48,5.48,0,0,0,.78,3,3.1,3.1,0,0,0,2.82,1.22,4.44,4.44,0,0,0,1.24-.2,3.8,3.8,0,0,0,1.25-.67,3.44,3.44,0,0,0,.87-1.28,5.17,5.17,0,0,0,.35-2v-2Z" transform="translate(-35.19 -19.98)"/><path d="M327.61,70.72V29.42h5.92V44.15h.11a8.57,8.57,0,0,1,2.24-2.29,5.74,5.74,0,0,1,3.33-.9,6.85,6.85,0,0,1,2.21.38,5.12,5.12,0,0,1,2,1.25,6.28,6.28,0,0,1,1.39,2.23,9.34,9.34,0,0,1,.52,3.34V70.72h-5.92V50.36a4,4,0,0,0-.75-2.55,2.61,2.61,0,0,0-2.15-.93,2.48,2.48,0,0,0-2.31,1,5.8,5.8,0,0,0-.64,3V70.72Z" transform="translate(-35.19 -19.98)"/><path d="M350.17,70.72V41.31h5.92v3.13a18.15,18.15,0,0,1,3.54-2.55,9,9,0,0,1,4.29-.93v6.27a4.85,4.85,0,0,0-1.8-.35,7.1,7.1,0,0,0-2,.32,5.15,5.15,0,0,0-1.94,1.07,5.48,5.48,0,0,0-1.51,2,7,7,0,0,0-.58,3V70.72Z" transform="translate(-35.19 -19.98)"/><path d="M366.3,35.34V29.42h5.91v5.92Zm0,35.38V41.31h5.91V70.72Z" transform="translate(-35.19 -19.98)"/><path d="M387.81,49.55a2.92,2.92,0,0,0-.95-2.26,3.09,3.09,0,0,0-2.06-.76,2.65,2.65,0,0,0-2.15.9,3.13,3.13,0,0,0-.75,2.06,3.41,3.41,0,0,0,.4,1.59,3.77,3.77,0,0,0,2.09,1.43l3.48,1.39a8.4,8.4,0,0,1,4.55,3.48,9.51,9.51,0,0,1,1.25,4.81,8.73,8.73,0,0,1-.67,3.45,9.17,9.17,0,0,1-1.82,2.82,8.3,8.3,0,0,1-2.79,1.91,8.93,8.93,0,0,1-3.53.7,8.55,8.55,0,0,1-6-2.27,8.24,8.24,0,0,1-2-2.75,9.93,9.93,0,0,1-.81-3.86h5.57a5.44,5.44,0,0,0,.84,2.26,2.56,2.56,0,0,0,2.35,1,3.5,3.5,0,0,0,2.29-.84,2.91,2.91,0,0,0,1-2.35,3.47,3.47,0,0,0-.63-2.09,5.09,5.09,0,0,0-2.32-1.51l-2.85-1a9.74,9.74,0,0,1-4.38-3.11,7.94,7.94,0,0,1-1.59-5,8.54,8.54,0,0,1,2.61-6.21,7.85,7.85,0,0,1,2.73-1.77A9.28,9.28,0,0,1,385,41a8.67,8.67,0,0,1,3.33.64A7.65,7.65,0,0,1,391,43.4a8.37,8.37,0,0,1,1.74,2.75,9,9,0,0,1,.64,3.4Z" transform="translate(-35.19 -19.98)"/><path d="M397.5,41.31V32.38h5.91v8.93h3.66V46h-3.66v16.3a4.88,4.88,0,0,0,.21,1.62,1.55,1.55,0,0,0,.66.87,2.47,2.47,0,0,0,1.14.35q.66.06,1.65.06v5.57h-2.44a7.92,7.92,0,0,1-3.39-.64,6.35,6.35,0,0,1-2.18-1.62,6.43,6.43,0,0,1-1.18-2.24,8,8,0,0,1-.38-2.4V46h-3V41.31Z" transform="translate(-35.19 -19.98)"/><path d="M409.33,35.34V29.42h5.92v5.92Zm0,35.38V41.31h5.92V70.72Z" transform="translate(-35.19 -19.98)"/><path d="M431.31,70.72v-3h-.11a11.22,11.22,0,0,1-2.35,2.5,5.6,5.6,0,0,1-3.34.87,7.58,7.58,0,0,1-2.12-.32,5.54,5.54,0,0,1-2.05-1.19,5.72,5.72,0,0,1-1.6-2.35,10.86,10.86,0,0,1-.61-4,20.91,20.91,0,0,1,.41-4.38,6.91,6.91,0,0,1,1.51-3.16,6.15,6.15,0,0,1,2.84-1.83,14.38,14.38,0,0,1,4.58-.61h.64a3.24,3.24,0,0,1,.64.06,3.4,3.4,0,0,0,.69.06c.27,0,.56,0,.87,0V50.36a4.43,4.43,0,0,0-.64-2.49,2.54,2.54,0,0,0-2.32-1,3.34,3.34,0,0,0-2.11.75A3.58,3.58,0,0,0,425,49.84h-5.74a9.4,9.4,0,0,1,2.67-6.38,8.36,8.36,0,0,1,2.78-1.83,9.61,9.61,0,0,1,3.65-.67,10.41,10.41,0,0,1,3.48.58,8.08,8.08,0,0,1,2.85,1.74,8.55,8.55,0,0,1,1.85,2.9,10.79,10.79,0,0,1,.7,4.06V70.72Zm0-12.65a10.36,10.36,0,0,0-1.62-.17,5.82,5.82,0,0,0-3.28.9,3.63,3.63,0,0,0-1.36,3.28,4.29,4.29,0,0,0,.81,2.72,2.69,2.69,0,0,0,2.26,1,2.91,2.91,0,0,0,2.35-1,4.18,4.18,0,0,0,.84-2.78Z" transform="translate(-35.19 -19.98)"/><path d="M441.58,70.72V41.31h5.91v2.84h.12a8.54,8.54,0,0,1,2.23-2.29,5.75,5.75,0,0,1,3.34-.9,6.79,6.79,0,0,1,2.2.38,5,5,0,0,1,2,1.25,6.3,6.3,0,0,1,1.4,2.23,9.56,9.56,0,0,1,.52,3.34V70.72h-5.92V50.36a4,4,0,0,0-.75-2.55,2.62,2.62,0,0,0-2.15-.93,2.51,2.51,0,0,0-2.32,1,5.9,5.9,0,0,0-.64,3V70.72Z" transform="translate(-35.19 -19.98)"/><path d="M160.73,88.94c-.25,0-.64,0-1.13,0s-1,0-1.57,0V119.8c.59,0,1.08,0,1.57,0s.88.05,1.13.05h.44c.64,0,1,.34,1,.88v1H151.37v-1c0-.54.34-.83,1-.88h.44c.25,0,.64-.05,1.13-.05s1,0,1.57,0V105.15H133.78V119.8c.59,0,1.13,0,1.62,0s.83.05,1.08.05H137c.63,0,.93.34.93.88v1H127.12v-1c0-.54.34-.83,1-.88h.49c.24,0,.59-.05,1.08-.05s1,0,1.61,0V89c-.59,0-1.12,0-1.61,0s-.84,0-1.08,0h-.49c-.64,0-1-.35-1-.89v-.93H137.9v.93c0,.54-.3.84-.93.89h-.49c-.25,0-.59,0-1.08,0s-1,0-1.62,0v14.21h21.71V89c-.59,0-1.08,0-1.57,0s-.88,0-1.13,0h-.44c-.64,0-1-.35-1-.89v-.93h10.78v.93c0,.54-.34.84-1,.89Z" transform="translate(-35.19 -19.98)"/><path d="M176.21,88.94c-.24,0-.58,0-1.07,0s-1,0-1.62,0V119.8c.59,0,1.13,0,1.62,0s.83.05,1.07.05h.49c.64,0,.94.34.94.88v1H166.86v-1c0-.54.34-.83,1-.88h.49c.24,0,.58-.05,1.07-.05s1,0,1.62,0V89c-.59,0-1.13,0-1.62,0s-.83,0-1.07,0h-.49c-.64,0-1-.35-1-.89v-1h10.78v1c0,.54-.3.84-.94.89Z" transform="translate(-35.19 -19.98)"/><path d="M211.64,106v12.29A29.51,29.51,0,0,1,209,120a18.52,18.52,0,0,1-3,1.22,32.25,32.25,0,0,1-3.43.74,32.93,32.93,0,0,1-4,.24,18,18,0,0,1-6.81-1.27,14.78,14.78,0,0,1-5.34-3.58,16.4,16.4,0,0,1-3.43-5.58,20.48,20.48,0,0,1-1.23-7.3,20.22,20.22,0,0,1,1.23-7.3,15.38,15.38,0,0,1,3.48-5.59A15.63,15.63,0,0,1,191.89,88a19.73,19.73,0,0,1,7.21-1.23,32.05,32.05,0,0,1,6.27.69,27.75,27.75,0,0,1,5.93,1.76V97h-1.18c-.68,0-1-.39-1.08-1.18,0-.34-.09-2.1-.24-5.29-2.4-1.12-5.69-1.66-9.8-1.66A16.14,16.14,0,0,0,192.92,90a13.43,13.43,0,0,0-4.65,3.09,13.73,13.73,0,0,0-2.94,4.9,19,19,0,0,0-1.08,6.47,19.48,19.48,0,0,0,1.08,6.56,12.93,12.93,0,0,0,7.5,8,15.21,15.21,0,0,0,5.88,1.08,32,32,0,0,0,3.23-.15,14.77,14.77,0,0,0,2.74-.54,16.62,16.62,0,0,0,2.4-.93c.74-.34,1.52-.73,2.31-1.18V108h-6.67a.58.58,0,0,1-.63-.54V106Z" transform="translate(-35.19 -19.98)"/><path d="M250.15,88.94c-.24,0-.63,0-1.12,0s-1,0-1.57,0V119.8c.59,0,1.08,0,1.57,0s.88.05,1.12.05h.44c.64,0,1,.34,1,.88v1H240.8v-1c0-.54.34-.83,1-.88h.44c.24,0,.63-.05,1.12-.05s1,0,1.57,0V105.15h-21.7V119.8c.58,0,1.12,0,1.61,0s.84.05,1.08.05h.49c.64,0,.93.34.93.88v1H216.54v-1c0-.54.35-.83,1-.88H218c.25,0,.59-.05,1.08-.05s1,0,1.62,0V89c-.59,0-1.13,0-1.62,0s-.83,0-1.08,0h-.49c-.63,0-1-.35-1-.89v-.93h10.78v.93c0,.54-.29.84-.93.89h-.49c-.24,0-.59,0-1.08,0s-1,0-1.61,0v14.21h21.7V89c-.59,0-1.08,0-1.57,0s-.88,0-1.12,0h-.44c-.64,0-1-.35-1-.89v-.93h10.77v.93c0,.54-.34.84-1,.89Z" transform="translate(-35.19 -19.98)"/><path d="M288.86,111.62a11.41,11.41,0,0,1-.73,4.12,9.56,9.56,0,0,1-2.21,3.33,10.16,10.16,0,0,1-3.47,2.25,12.8,12.8,0,0,1-4.71.83,23.37,23.37,0,0,1-9.31-1.91V112.5h1.18c.68,0,1,.39,1.08,1.18,0,0,0,.34.05.88s.05,1.18.09,2,.05,1.52.1,2.2a16,16,0,0,0,6.91,1.33,9.63,9.63,0,0,0,3.67-.59,7.24,7.24,0,0,0,4.41-4.26,8.42,8.42,0,0,0,.59-3.19,5.73,5.73,0,0,0-.73-3,6.32,6.32,0,0,0-2-2,13.25,13.25,0,0,0-2.8-1.37l-3.18-1c-1.08-.34-2.2-.73-3.23-1.17a11,11,0,0,1-2.75-1.62,7.47,7.47,0,0,1-2-2.45,8.39,8.39,0,0,1-.73-3.72,8.65,8.65,0,0,1,.64-3.38,8.51,8.51,0,0,1,2-2.84,8.82,8.82,0,0,1,3.13-2,12.09,12.09,0,0,1,4.31-.73,22.61,22.61,0,0,1,8.92,2v7.1H286.9c-.68,0-1-.44-1-1.22,0-.25-.1-1.81-.25-4.61a16.43,16.43,0,0,0-6.47-1.22,9.73,9.73,0,0,0-3.33.54,6.17,6.17,0,0,0-2.4,1.47A6.34,6.34,0,0,0,272,93a6.71,6.71,0,0,0-.54,2.55,5.44,5.44,0,0,0,.79,2.94,6.21,6.21,0,0,0,2,2,14.49,14.49,0,0,0,2.79,1.37c1,.35,2.11.74,3.18,1.08a32.92,32.92,0,0,1,3.24,1.18,12.74,12.74,0,0,1,2.74,1.61,7.08,7.08,0,0,1,2.74,6Z" transform="translate(-35.19 -19.98)"/><path d="M321.3,117.16a18.17,18.17,0,0,1-2.35,2,16.68,16.68,0,0,1-2.74,1.57,17.34,17.34,0,0,1-3.34,1,19.85,19.85,0,0,1-4,.34,16.9,16.9,0,0,1-6.56-1.27,14.15,14.15,0,0,1-5.15-3.58,16.35,16.35,0,0,1-3.33-5.58,21.65,21.65,0,0,1-1.22-7.3,19.85,19.85,0,0,1,1.22-7.2,16.42,16.42,0,0,1,3.48-5.59A15.92,15.92,0,0,1,302.73,88a17.49,17.49,0,0,1,6.86-1.27,29.83,29.83,0,0,1,11.07,2.45V97h-1.17c-.69,0-1-.39-1-1.18,0-.39-.15-2.2-.29-5.34a21.21,21.21,0,0,0-8.58-1.61A14.87,14.87,0,0,0,303.81,90a13.54,13.54,0,0,0-4.56,3.09,15.1,15.1,0,0,0-3,4.9,19.22,19.22,0,0,0-1,6.47,19.55,19.55,0,0,0,1,6.56,14.49,14.49,0,0,0,2.94,4.9,11.81,11.81,0,0,0,4.36,3A13.72,13.72,0,0,0,309.1,120a21.37,21.37,0,0,0,3.28-.25,11.27,11.27,0,0,0,2.7-.73,10.66,10.66,0,0,0,2.25-1.18,21.84,21.84,0,0,0,2.11-1.66,1,1,0,0,0,.24-.2.45.45,0,0,1,.25,0,.59.59,0,0,1,.39.2Z" transform="translate(-35.19 -19.98)"/><path d="M358.44,88.94c-.24,0-.63,0-1.12,0s-1,0-1.57,0V119.8c.59,0,1.08,0,1.57,0s.88.05,1.12.05h.44c.64,0,1,.34,1,.88v1H349.08v-1c0-.54.35-.83,1-.88h.45c.24,0,.63-.05,1.12-.05s1,0,1.57,0V105.15H331.5V119.8c.58,0,1.12,0,1.61,0s.84.05,1.08.05h.49c.64,0,.93.34.93.88v1H324.83v-1c0-.54.34-.83,1-.88h.49c.25,0,.59-.05,1.08-.05s1,0,1.62,0V89c-.59,0-1.13,0-1.62,0s-.83,0-1.08,0h-.49c-.64,0-1-.35-1-.89v-.93h10.78v.93c0,.54-.29.84-.93.89h-.49c-.24,0-.59,0-1.08,0s-1,0-1.61,0v14.21h21.7V89c-.59,0-1.08,0-1.57,0s-.88,0-1.12,0h-.45c-.63,0-1-.35-1-.89v-.93h10.78v.93c0,.54-.34.84-1,.89Z" transform="translate(-35.19 -19.98)"/><path d="M395.78,111.72a16,16,0,0,1-3.38,5.58,14.73,14.73,0,0,1-5.19,3.58,17.79,17.79,0,0,1-6.77,1.27,17.26,17.26,0,0,1-6.66-1.27,14.83,14.83,0,0,1-5.24-3.58,16,16,0,0,1-3.38-5.58,22.13,22.13,0,0,1,0-14.55,16,16,0,0,1,3.38-5.59A14.94,14.94,0,0,1,373.78,88a17.08,17.08,0,0,1,6.66-1.28A17.6,17.6,0,0,1,387.21,88a14.84,14.84,0,0,1,5.19,3.62,16,16,0,0,1,3.38,5.59,22.3,22.3,0,0,1,0,14.55Zm-2.4-13.82a14.39,14.39,0,0,0-2.84-4.9,12.21,12.21,0,0,0-4.41-3.08,15.37,15.37,0,0,0-11.32,0A12.13,12.13,0,0,0,370.4,93a14.49,14.49,0,0,0-2.89,4.9,19.29,19.29,0,0,0-1,6.52,19,19,0,0,0,1,6.51,14.3,14.3,0,0,0,2.89,4.9,12,12,0,0,0,4.41,3.09,16.07,16.07,0,0,0,11.32,0,12.12,12.12,0,0,0,4.41-3.09,14.21,14.21,0,0,0,2.84-4.9,19,19,0,0,0,1-6.51A19.29,19.29,0,0,0,393.38,97.9Z" transform="translate(-35.19 -19.98)"/><path d="M432.68,111.72a16.15,16.15,0,0,1-3.38,5.58,14.68,14.68,0,0,1-5.2,3.58,17.73,17.73,0,0,1-6.76,1.27,17.22,17.22,0,0,1-6.66-1.27,14.83,14.83,0,0,1-5.24-3.58,16,16,0,0,1-3.39-5.58,22.3,22.3,0,0,1,0-14.55,16.07,16.07,0,0,1,3.39-5.59A14.94,14.94,0,0,1,410.68,88a17,17,0,0,1,6.66-1.28A17.55,17.55,0,0,1,424.1,88a14.78,14.78,0,0,1,5.2,3.62,16.19,16.19,0,0,1,3.38,5.59,22.3,22.3,0,0,1,0,14.55Zm-2.4-13.82a14.25,14.25,0,0,0-2.85-4.9A12,12,0,0,0,423,89.92a15.34,15.34,0,0,0-11.31,0A12,12,0,0,0,407.3,93a14.17,14.17,0,0,0-2.89,4.9,19.29,19.29,0,0,0-1,6.52,19,19,0,0,0,1,6.51,14,14,0,0,0,2.89,4.9,12,12,0,0,0,4.41,3.09,16,16,0,0,0,11.31,0,12,12,0,0,0,4.41-3.09,14.07,14.07,0,0,0,2.85-4.9,19.29,19.29,0,0,0,1-6.51A19.55,19.55,0,0,0,430.28,97.9Z" transform="translate(-35.19 -19.98)"/><path d="M460.9,115.29h1v6.47H438.36v-1c0-.54.35-.83,1-.88h.49c.25,0,.59-.05,1.08-.05s1,0,1.62,0V89c-.59,0-1.13,0-1.62,0s-.83,0-1.08,0h-.49c-.63,0-1-.35-1-.89v-.93h10.78v.93c0,.54-.34.84-1,.89h-.44c-.24,0-.64,0-1.13,0s-1,0-1.56,0v30.58h14.3c.05-.69.1-1.28.15-1.72s0-.78.1-1a1.82,1.82,0,0,0,.05-.44c.05-.78.34-1.18,1-1.18Z" transform="translate(-35.19 -19.98)"/></svg>